REM DIRINDEX 1\2,1\3
REM DIRNAME folder01,folder02,folder03
TITLE ""
FILE "Track87.mp3" MP3
  TRACK 01 AUDIO
    TITLE "3:cjc140_306"
    INDEX 01 00:00:00
  TRACK 02 AUDIO
    TITLE "2:cjc140_307"
    INDEX 01 00:01:68
  TRACK 03 AUDIO
    TITLE "2:cjc140_308"
    INDEX 01 00:11:27
  TRACK 04 AUDIO
    TITLE "0:"
    INDEX 01 00:23:42
